<svg fill="none" xmlns="http://www.w3.org/2000/svg"><symbol id="inc" viewBox="0 0 26 26" stroke="none" xmlns="http://www.w3.org/2000/svg"><path fill-rule="evenodd" clip-rule="evenodd" d="M11.5353 1.5074V11.5353H1.5074C0.206436 11.5353 -0.506739 13.0216 0.421534 14.0295C0.647078 14.2744 1.05519 14.4647 1.5074 14.4647H11.5353V24.4926C11.5353 25.7936 13.0216 26.5068 14.0295 25.5785C14.2744 25.3529 14.4647 24.9448 14.4647 24.4926V14.4647H24.4926C25.7936 14.4647 26.5068 12.9784 25.5785 11.9705C25.3529 11.7256 24.9448 11.5353 24.4926 11.5353H14.4647V1.5074C14.4647 0.206436 12.9784 -0.506739 11.9705 0.421534C11.7256 0.647078 11.5353 1.05519 11.5353 1.5074Z" /></symbol><symbol id="dec" viewBox="0 0 26 26" stroke="none" xmlns="http://www.w3.org/2000/svg"><path fill-rule="evenodd" clip-rule="evenodd" d="M2.23069 0C0.898416 0 0.168077 1.52214 1.11869 2.55428C1.34966 2.80505 1.76759 2.99998 2.23069 2.99998C22.0919 2.99998 6.37685 2.99998 25.7691 2.99998C27.1014 2.99998 27.8317 1.47784 26.8811 0.445701C26.6501 0.194926 26.2322 0 25.7691 0C5.90787 0 21.6229 0 2.23069 0Z" /></symbol><symbol id="call" viewBox="0 0 16 16" stroke="none" xmlns="http://www.w3.org/2000/svg"><path fill-rule="evenodd" clip-rule="evenodd" d="M3.56667 1.13311C3.70032 1.2226 4.01963 1.7125 4.12669 1.87308C4.42263 2.31694 4.90579 3.10764 5.12228 3.54416C5.27371 3.84948 5.41269 4.1421 5.56667 4.43311L4.79497 5.09473C4.70847 5.16437 4.10001 5.77206 4.10001 5.83311C4.10001 6.69481 4.99468 8.21943 5.51874 8.91437C5.93294 9.46364 6.48538 10.0038 7.02875 10.4377C7.69413 10.9691 9.32271 11.8998 10.1333 11.8998C10.3789 11.8998 11.1584 10.867 11.3751 10.6415C11.4555 10.5579 11.4729 10.5234 11.5333 10.4331C11.6981 10.4715 12.5915 10.9433 12.8652 11.1013L14.1067 11.8598C14.2498 11.9553 14.368 12.0396 14.5002 12.1329C14.6238 12.22 14.7843 12.3101 14.8667 12.4331C14.5769 12.8658 13.2062 14.034 12.7331 14.3662C12.5366 14.5043 12.356 14.6433 12.1471 14.7803C11.958 14.9043 11.9699 14.9174 11.8291 14.908C10.9144 14.8465 9.30173 14.1645 8.4727 13.6604L7.85329 13.2798C7.02544 12.7278 6.85744 12.5871 6.0951 11.9713L5.02499 10.9748C3.876 9.82578 3.17923 8.91081 2.3521 7.54768C2.2219 7.33311 2.10917 7.11831 1.99999 6.89979C1.88059 6.6608 1.78849 6.4531 1.67589 6.19054C1.4573 5.68082 1.15822 4.81434 1.09756 4.23112C1.09673 4.22312 1.08953 4.14431 1.0895 4.14315L1.09238 4.07441C1.09351 4.06912 1.09636 4.06 1.09801 4.05495L2.28059 2.44704C2.4877 2.18242 3.36848 1.26584 3.56667 1.13313V1.13311ZM0 3.96645C0 4.86804 0.438192 6.17084 0.833688 6.96609C1.08909 7.4796 1.26895 7.89518 1.61353 8.41959C2.12142 9.19255 2.85815 10.2856 3.52433 10.9754L5.20801 12.6251C5.84438 13.1906 6.38345 13.5998 7.09335 14.0731C8.11469 14.7539 9.4168 15.4486 10.633 15.7668C11.939 16.1085 12.0819 16.1757 13.2283 15.3281C13.4186 15.1874 13.5783 15.0754 13.7621 14.9285C14.4054 14.414 16 13.1217 16 12.4331C16 12.1277 15.8798 11.9404 15.7433 11.7565C15.4573 11.3709 13.4462 10.1431 12.8783 9.85483C11.298 9.05276 11.1928 9.17728 10.2233 10.3231C10.1185 10.4471 9.94665 10.6137 9.86667 10.7331C8.71444 10.4647 7.23274 9.3433 6.4804 8.38604L5.99807 7.70169C5.75167 7.28615 5.38908 6.65855 5.26666 6.1331L6.43911 5.07221C6.48911 5.00992 6.54277 4.92598 6.57775 4.84418C6.59757 4.79784 6.66667 4.5717 6.66667 4.5331C6.66667 4.00191 6.21395 3.28835 5.9888 2.8443C5.7763 2.42519 4.55008 0.465595 4.2674 0.265696C4.08721 0.138285 3.87488 -0.000244141 3.56667 -0.000244141C2.6418 -0.000244141 0 3.43626 0 3.96642L0 3.96645Z" /></symbol><symbol id="arrow_right" viewBox="0 0 16 16" stroke="none" xmlns="http://www.w3.org/2000/svg"><path fill-rule="evenodd" clip-rule="evenodd" d="M9.46385 2.85439C9.46385 3.28102 9.55091 3.33317 9.84682 3.62886C10.0254 3.80731 10.1789 3.96097 10.3575 4.13949L13.4468 7.24588L1.05528 7.24584C0.524602 7.24462 0 7.37112 0 7.99483C0 8.59027 0.499856 8.74584 1.02117 8.74387L13.4468 8.74376C13.3416 8.90094 10.1807 12.0291 9.79571 12.4118C9.04732 13.1558 9.58046 13.8161 10.2128 13.8161C10.5842 13.8161 10.8503 13.4339 11.0553 13.2289L15.4128 8.87142C15.6359 8.64825 16 8.40966 16 7.99483C16 7.58342 15.6502 7.35569 15.4298 7.13524C15.1775 6.88295 14.9501 6.65562 14.6979 6.40333L11.7872 3.49269C11.6198 3.32524 10.6809 2.31931 10.4822 2.24453C9.85967 2.01022 9.46382 2.50736 9.46382 2.85439H9.46385Z" /></symbol><symbol id="whatsapp" viewBox="0 0 16 16" stroke="none" xmlns="http://www.w3.org/2000/svg"><path fill-rule="evenodd" clip-rule="evenodd" d="M7.99499 14.933C7.3186 14.933 6.51826 14.7911 5.90022 14.5959C5.62794 14.51 5.29588 14.3836 5.0409 14.256C4.90124 14.1862 4.77643 14.1319 4.6445 14.0528C4.15801 13.761 4.21433 13.8564 3.4906 14.0596L1.33251 14.6665C1.38733 14.4312 1.4632 14.1867 1.52845 13.963L1.93606 12.5384C2.22703 11.5409 2.19953 11.872 1.77626 11.0247C1.41858 10.3087 1.09932 9.1603 1.09932 8.30383C1.09932 6.86903 1.2065 6.32658 1.7418 5.08207C1.91464 4.68027 2.11176 4.38855 2.33847 4.04643C2.51532 3.77959 2.68343 3.58792 2.89024 3.36564C3.24059 2.98908 3.5181 2.69049 3.97736 2.3874L4.74096 1.91843C5.56802 1.45768 6.73415 1.10834 7.69516 1.10834C8.98996 1.10834 9.90053 1.2357 10.9936 1.77408C12.8889 2.70765 14.282 4.38908 14.7435 6.48556C15.0675 7.95764 14.9324 9.4983 14.3022 10.8467C14.2481 10.9625 14.2309 11.036 14.1687 11.1463C13.6064 12.1431 12.9153 13.0438 11.946 13.6873C11.764 13.8081 11.6099 13.9184 11.4152 14.0226L10.8377 14.3112C10.0406 14.6832 8.9122 14.933 7.99499 14.933V14.933ZM1.23645e-05 7.7042C1.23645e-05 8.7896 0.0214277 9.20316 0.318707 10.2504C0.438223 10.6714 0.601657 11.0917 0.787977 11.48C0.838536 11.5854 0.975188 11.8002 0.982793 11.8697C0.990137 11.9368 0.549837 13.426 0.485307 13.6527C0.397778 13.9602 0.315901 14.2372 0.233207 14.5332C0.145617 14.8468 1.23645e-05 15.2193 1.23645e-05 15.5326C1.23645e-05 15.7275 0.213992 15.999 0.533009 15.999C0.737975 15.999 1.22505 15.8333 1.43966 15.773C1.8422 15.66 4.06408 14.9995 4.15073 15.0202L4.91076 15.3855C5.21201 15.5121 5.4524 15.5808 5.77553 15.6867C6.9841 16.0827 8.6324 16.0917 9.87396 15.7793C11.5552 15.3563 12.6434 14.6521 13.8499 13.4592C13.9525 13.3578 13.9876 13.2923 14.0828 13.1924C14.8086 12.4305 15.4745 11.0654 15.7434 9.9894C16.5632 6.70965 15.3226 3.42609 12.6447 1.48879C11.8477 0.912154 10.9858 0.532119 10.013 0.256267C8.21836 -0.252606 6.04504 0.0267818 4.44756 0.825541L3.9702 1.08107C2.89971 1.7323 1.95106 2.5844 1.27222 3.64645C0.817108 4.3585 0.442118 5.19763 0.23976 6.01186C0.116239 6.5089 0 7.09915 0 7.70421L1.23645e-05 7.7042Z" /><path fill-rule="evenodd" clip-rule="evenodd" d="M5.52963 6.73812C5.52963 7.51267 6.33875 8.6632 6.83713 9.1616C7.21581 9.54029 7.42424 9.69624 7.8881 9.97612C8.1541 10.1366 8.86674 10.4691 9.2606 10.4691C9.40346 10.4691 10.0072 9.7983 10.0934 9.66962L11.2154 10.3132C11.3316 10.3818 11.4786 10.5053 11.5925 10.5357C11.4523 10.745 11.2644 10.8642 11.1183 10.9943C10.9767 11.1205 10.2749 11.7017 10.1933 11.7017C9.31948 11.7017 7.9708 10.8133 7.24731 10.2505C7.15261 10.1768 7.13549 10.1499 7.05202 10.0793L6.12106 9.17813C5.6335 8.70168 4.90036 7.60742 4.64422 6.9906C4.54708 6.75669 4.29707 6.14744 4.29707 5.87201C4.29707 5.75861 4.33282 5.73166 4.38625 5.6614C4.62512 5.3474 5.17003 4.60245 5.46299 4.40626C5.4934 4.52015 5.61689 4.66713 5.68555 4.78332C5.81963 5.01024 6.28108 5.73241 6.32911 5.93863C6.22001 5.96778 5.97964 6.20423 5.8877 6.29671C5.81293 6.37189 5.52963 6.63867 5.52963 6.73812ZM3.19775 5.73875C3.19775 6.70168 3.96031 8.17606 4.47277 8.86097L5.0549 9.61134C5.26746 9.83435 5.65672 10.3176 5.90589 10.5259C6.009 10.6121 6.04003 10.6306 6.13707 10.7278C6.42121 11.0122 7.30666 11.6611 7.63871 11.8578C8.33794 12.2721 9.3894 12.801 10.26 12.801C10.7979 12.801 12.7917 11.1878 12.7917 10.5357C12.7917 10.148 12.5797 9.94865 12.3496 9.77864C12.1025 9.59603 11.8924 9.46375 11.6322 9.29679C11.1877 9.01162 10.1993 8.3185 9.64816 8.62473C9.43179 8.74494 9.12295 9.11081 8.99412 9.3032L8.60542 9.12558C7.75405 8.70267 7.18913 8.05746 6.78395 7.21606C6.7444 7.13395 6.72951 7.07541 6.69557 7.00464C6.89664 6.86999 7.23089 6.58494 7.3616 6.37148C7.72551 5.77714 6.81773 4.5236 6.48257 4.01965C5.91995 3.17366 5.56359 2.88254 4.70462 3.64787C4.58184 3.75726 4.49949 3.80004 4.39205 3.93494C4.28546 4.06879 4.20943 4.12727 4.10701 4.24953C3.89662 4.50075 3.19777 5.37443 3.19777 5.73877L3.19775 5.73875Z" /></symbol><symbol id="pin" viewBox="0 0 16 16" stroke="none" xmlns="http://www.w3.org/2000/svg"><path fill-rule="evenodd" clip-rule="evenodd" d="M3.08151 6.3754C3.08151 5.90624 3.11816 5.53267 3.22096 5.11611C3.52368 3.88956 4.27802 2.72157 5.32592 2.02584C5.75165 1.74318 5.7036 1.78373 6.15607 1.55717C7.40726 0.930672 9.16835 0.948322 10.3864 1.53493C11.1936 1.92367 12.0137 2.51961 12.5133 3.27113C13.167 4.25436 13.472 5.12891 13.472 6.37541C13.472 7.59851 13.0019 8.63924 12.3876 9.45386L11.6156 10.347C11.5231 10.4379 11.5104 10.4669 11.4307 10.5617C10.8282 11.2783 10.3247 11.8147 9.70877 12.6031C9.46347 12.917 9.23151 13.2176 8.9856 13.545C8.86067 13.7114 8.75296 13.8577 8.6365 14.0285C8.56517 14.1331 8.35423 14.4446 8.27676 14.5013C8.19928 14.4446 7.98834 14.1331 7.91702 14.0285C7.80055 13.8577 7.69286 13.7114 7.56791 13.545C7.32196 13.2176 7.10718 12.9171 6.85931 12.5885C6.61302 12.2619 6.37499 11.9762 6.11973 11.6629L5.55463 10.9958C5.46215 10.9008 5.4364 10.8566 5.35418 10.7633C5.28615 10.6861 5.22299 10.6417 5.15611 10.5617L4.75456 10.1307C3.79286 9.09097 3.08151 7.99817 3.08151 6.37541V6.3754ZM8.21015 15.9999C8.38686 15.9999 8.50115 16.0021 8.65811 15.8484L9.28922 14.9809C9.56964 14.5747 9.83904 14.2164 10.1322 13.8258C10.5627 13.2522 12.1174 11.3603 12.6305 10.829L13.1014 10.3008C14.3835 8.67695 14.8166 6.96819 14.4131 4.93479C13.97 2.70233 12.1315 0.81996 9.93533 0.220932C5.42633 -1.00891 1.00924 3.08253 2.19544 7.86091C2.41457 8.74362 2.88389 9.60718 3.37629 10.2102C3.80078 10.73 4.62831 11.529 5.04644 12.0701L5.83802 13.0436C6.24036 13.5333 7.30915 15.0283 7.71035 15.6006C7.81314 15.7472 7.97187 15.9999 8.21016 15.9999L8.21015 15.9999Z" /><path fill-rule="evenodd" clip-rule="evenodd" d="M6.678 6.40871C6.678 5.04089 8.37552 4.25857 9.4011 5.28416C9.86845 5.75151 9.99819 6.43744 9.72855 7.06146C9.30358 8.04496 7.93982 8.33938 7.15162 7.53364C6.86976 7.24552 6.678 6.82192 6.678 6.40871ZM5.6123 6.2755C5.6123 7.15194 5.83981 7.75215 6.38646 8.29879C7.42487 9.3372 9.12674 9.33669 10.1668 8.29901C11.1996 7.26869 11.2084 5.56238 10.1668 4.5184C9.13679 3.48596 7.42852 3.47656 6.38646 4.51862C6.01793 4.88714 5.6123 5.55558 5.6123 6.27549V6.2755Z" /></symbol><symbol id="email" viewBox="0 0 16 16" stroke="none" xmlns="http://www.w3.org/2000/svg"><path fill-rule="evenodd" clip-rule="evenodd" d="M1.21312 3.90164L4.84515 6.92533C4.98486 7.04716 5.112 7.1473 5.25605 7.26853C5.3999 7.38959 5.52598 7.49681 5.66754 7.61115L7.29718 8.96511C7.94087 9.46956 8.06935 9.14324 8.70735 8.64178C8.85101 8.52886 8.9554 8.42818 9.10079 8.31392L14.3934 3.90165V12.7869H1.21312V3.90165V3.90164ZM2.29508 3.2131H13.3115C12.2349 4.14885 10.986 5.14412 9.87899 6.07571C9.64022 6.27665 9.42352 6.46715 9.18491 6.66033L8.16391 7.50818C8.04845 7.59792 7.92322 7.72294 7.80325 7.80327L7.12204 7.23858C6.17096 6.40931 4.9782 5.49378 4.02546 4.66303L2.64841 3.51549C2.52524 3.40808 2.41301 3.31562 2.29507 3.2131H2.29508ZM0 2.59016V13.4098C0 13.7279 0.272118 14 0.590165 14H15.0164C15.3344 14 15.6066 13.7279 15.6066 13.4098V2.59016C15.6066 2.27212 15.3344 2 15.0164 2H0.590165C0.272118 2 0 2.27212 0 2.59016Z" /></symbol></svg>